<svg width="648" height="394" viewBox="0 0 648 394" fill="none" xmlns="http://www.w3.org/2000/svg">
<path d="M3.8711 267.798C3.8711 286.553 3.82457 301.157 16.133 316.543C24.0802 326.477 34.7954 339.063 46.1066 345.154C70.646 358.368 95.8731 367.421 122.403 375.43C134.703 379.144 149.06 382.243 161.914 382.243C173.182 382.243 189.359 385.193 198.397 376.49C215.061 360.443 222.963 319.499 202.711 303.297C194.137 296.438 179.79 300.22 173.494 307.914C162.313 321.58 172.004 335.595 181.669 346.819C223.793 395.738 296.59 398.968 354.017 378.458C377.281 370.149 395.902 357.69 412.602 340.007C421.683 330.392 422.416 318.13 422.139 305.643C421.904 295.095 414.59 285.57 404.427 283.845C396.122 282.434 378.752 279.497 372.486 287.553C352.565 313.166 427.261 309.448 435.688 307.99C458.925 303.968 485.549 298.527 503.204 282.179C518.014 268.466 526.399 263.715 542 247.5C553.803 235.233 561.906 224.809 572 208.5C584.364 188.525 591.823 171.459 598 154C607.684 126.634 620.635 96.2483 626 57.3017C628.294 40.6516 632.158 31.0001 635.5 17.0001C638.842 3.00014 635.5 10.2977 634.982 10.2977C626.653 26.9544 608.36 42.2353 594.109 53.8956C590.638 56.735 582.253 65.552 577.154 65.552C572.854 65.552 582.395 58.3435 586 56.0002C592.862 51.5402 597.104 46.6171 603.5 41.5002C613.339 33.6294 623.82 18.5449 629.91 13.0226C636 7.50024 642.692 -2.15904 644 7.00015C645.265 15.8559 644.5 26.3991 644.5 35.5003C644.5 46.1475 644.155 54.435 643 66.5003C642.382 72.9616 642 75.0003 641 83.0003" stroke="#F4D738" stroke-width="6" stroke-linecap="round"/>
</svg>
